<?xml version="1.0" encoding="UTF-8" standalone="no"?>
<svg
   xmlns:dc="http://purl.org/dc/elements/1.1/"
   xmlns:cc="http://creativecommons.org/ns#"
   xmlns:rdf="http://www.w3.org/1999/02/22-rdf-syntax-ns#"
   xmlns:svg="http://www.w3.org/2000/svg"
   xmlns="http://www.w3.org/2000/svg"
   viewBox="0 0 467.74533 488"
   height="488"
   width="467.74533"
   xml:space="preserve"
   id="svg2"
   version="1.1"><metadata
     id="metadata8"><rdf:RDF><cc:Work
         rdf:about=""><dc:format>image/svg+xml</dc:format><dc:type
           rdf:resource="http://purl.org/dc/dcmitype/StillImage" /></cc:Work></rdf:RDF></metadata><defs
     id="defs6"><clipPath
       id="clipPath18"
       clipPathUnits="userSpaceOnUse"><path
         id="path16"
         d="M 0,0 H 350.808 V 366 H 0 Z" /></clipPath><clipPath
       id="clipPath422"
       clipPathUnits="userSpaceOnUse"><path
         id="path420"
         d="M 0,366 H 350.809 V 0 H 0 Z" /></clipPath></defs><g
     transform="matrix(1.3333333,0,0,-1.3333333,0,488)"
     id="g10"><g
       id="g12"><g
         clip-path="url(#clipPath18)"
         id="g14"><g
           transform="translate(125.2266,129.7842)"
           id="g20"><path
             id="path22"
             style="fill:#008557;fill-opacity:1;fill-rule:nonzero;stroke:none"
             d="m 0,0 c 0,61.142 48.127,111.038 108.563,113.884 -1.508,0.059 -3.022,0.098 -4.547,0.098 C 41.046,113.982 -10,62.937 -10,-0.035 c 0,-14.165 2.59,-27.727 7.312,-40.239 3.89,-1.791 7.88,-3.401 11.959,-4.819 C 3.309,-31.262 0,-16.019 0,0" /></g><g
           transform="translate(115.3164,134.2197)"
           id="g24"><path
             id="path26"
             style="fill:#007541;fill-opacity:1;fill-rule:nonzero;stroke:none"
             d="M 0,0 C -4.583,10.742 -14.64,14.341 -23.247,12.491 -33.545,10.278 -47.332,14.534 -55.332,25.77 -83.2,64.902 -65.4,115.8 -65.4,115.8 c 0,0 1.709,-22.104 11.868,-29.205 15.83,-11.064 24.583,-15.891 36.082,-31.153 5.432,-7.21 10.629,-15.376 8.023,-28.809 -1.299,-6.696 5.325,-14.141 10.178,-17.204 z" /></g><g
           transform="translate(125.9302,117.084)"
           id="g28"><path
             id="path30"
             style="fill:#007541;fill-opacity:1;fill-rule:nonzero;stroke:none"
             d="m 0,0 c 0,0 11.331,2.563 20.267,14.818 8.936,12.256 47.488,31.661 84.511,17.364 37.02,-14.298 69.4,4.977 69.4,4.977 -12.303,-25.914 -25.996,-40.722 -49.996,-50.17 -24,-9.447 -58.979,-1.02 -84.511,8.425 C 14.139,4.861 1.312,-8.729 1.312,-8.729 Z" /></g><g
           transform="translate(132.8794,170.9307)"
           id="g32"><path
             id="path34"
             style="fill:#008557;fill-opacity:1;fill-rule:nonzero;stroke:none"
             d="m 0,0 c 0,0 39.786,-0.467 68.041,21.188 l -2.553,5.827 C 41.829,8.632 3.06,7.161 3.06,7.161 Z" /></g><g
           transform="translate(115.2261,229.9458)"
           id="g36"><path
             id="path38"
             style="fill:#008557;fill-opacity:1;fill-rule:nonzero;stroke:none"
             d="m 0,0 c 17.284,-4.596 26.306,-27.347 26.306,-27.347 l 4.964,5.589 c 0,0 -6.427,17.928 -28.129,27.886 z" /></g><g
           transform="translate(199.2402,248.5044)"
           id="g40"><path
             id="path42"
             style="fill:#ffea52;fill-opacity:1;fill-rule:nonzero;stroke:none"
             d="M 0,0 C 0,0 6.019,14.844 -4.937,25.862 -15.891,36.881 -25.05,30.998 -28.704,24.057 -32.357,17.115 -34.15,9.549 -25.756,0.961 -17.361,-7.627 -12.198,-9.794 -10.838,-8.723 -9.479,-7.651 0,0 0,0" /></g><g
           transform="translate(194.5801,240.4282)"
           id="g44"><path
             id="path46"
             style="fill:#ffea52;fill-opacity:1;fill-rule:nonzero;stroke:none"
             d="m 0,0 c 0,0 -17.997,18.999 -28.098,6.64 -10.102,-12.361 -1.571,-21.411 -1.571,-21.411 0,0 11.115,-28.065 29.304,-2.765 l 2.09,5.14 c 0,0 -3.311,9.248 -1.725,12.396" /></g><g
           transform="translate(197.5605,226.8936)"
           id="g48"><path
             id="path50"
             style="fill:#ffea52;fill-opacity:1;fill-rule:nonzero;stroke:none"
             d="m 0,0 c 0,0 3.021,-2.294 3.15,-7.284 0.129,-4.989 10.913,-22.258 29.526,-13.76 0,0 2.117,-0.047 3.262,3.307 1.145,3.353 14.373,23.771 -18.325,29.628 C 13.015,12.715 5.895,8.439 5.895,8.439 l -9.146,4.307 z" /></g><g
           transform="translate(201.1631,248.2329)"
           id="g52"><path
             id="path54"
             style="fill:#ffea52;fill-opacity:1;fill-rule:nonzero;stroke:none"
             d="m 0,0 c 0.019,0.508 3.062,14.643 10.942,20.315 7.882,5.673 21.82,-0.109 23.961,-2.83 2.141,-2.72 11.506,-21.423 -7.262,-31.386 L 6.365,-14.214 4.073,-13.032 -9.891,-5.83 Z" /></g><g
           transform="translate(205.7754,252.0415)"
           id="g56"><path
             id="path58"
             style="fill:#979900;fill-opacity:1;fill-rule:nonzero;stroke:none"
             d="m 0,0 c 0,0 3.517,-1.981 1.971,-4.699 -1.545,-2.717 -2.989,-1.802 -2.989,-1.802 0,0 -5.067,-10.961 -6.564,-11.569 -1.497,-0.609 -4.577,-0.677 -4.369,2.316 0.207,2.994 8.433,11.198 8.433,11.198 0,0 -1.331,4.803 3.518,4.556" /></g><g
           transform="translate(197.8984,249.1973)"
           id="g60"><path
             id="path62"
             style="fill:#c8b300;fill-opacity:1;fill-rule:nonzero;stroke:none"
             d="m 0,0 c 0,0 -5.912,1.338 -3.042,-4.479 l -2.391,-3.532 2.23,-2.727 2.411,4.157 c 0,0 5.648,3.109 0.792,6.581" /></g><g
           transform="translate(201.3955,261.2251)"
           id="g64"><path
             id="path66"
             style="fill:#c8b300;fill-opacity:1;fill-rule:nonzero;stroke:none"
             d="m 0,0 c -0.244,0.078 -2.58,-0.472 -1.395,-3.804 0.366,-1.024 -0.373,-3.001 -0.373,-3.001 l -2.517,-5.112 -0.634,-4.552 c 0,0 2.892,0.42 3.388,1.348 0.495,0.928 1.496,7.13 1.496,7.13 0,0 6.56,5.89 0.035,7.991" /></g><g
           transform="translate(213.4141,243.46)"
           id="g68"><path
             id="path70"
             style="fill:#c8b300;fill-opacity:1;fill-rule:nonzero;stroke:none"
             d="M 0,0 C -1.259,-1.062 3.864,-2.237 2.521,1.255 1.18,4.746 -0.654,5.212 -2.606,3.945 -4.56,2.68 -4.741,2.135 -5.213,1.864 c -0.473,-0.27 -6.65,-6.27 -6.65,-6.27 0,0 -0.118,-1.824 0.383,-1.3" /></g><g
           transform="translate(98.1099,204.71)"
           id="g72"><path
             id="path74"
             style="fill:#ffea52;fill-opacity:1;fill-rule:nonzero;stroke:none"
             d="M 0,0 C 0,0 34.452,-14.593 18.278,24.618 L 14.045,31.906 9.634,30.961 C 9.634,30.961 -26.085,10.679 0,0" /></g><g
           transform="translate(72.6572,239.6304)"
           id="g76"><path
             id="path78"
             style="fill:#ffea52;fill-opacity:1;fill-rule:nonzero;stroke:none"
             d="M 0,0 C 0,0 0.992,-34.092 35.087,-3.959 L 36.541,1.72 C 36.541,1.72 5.757,30.924 0,0" /></g><g
           transform="translate(107.9688,241.7759)"
           id="g80"><path
             id="path82"
             style="fill:#ffea52;fill-opacity:1;fill-rule:nonzero;stroke:none"
             d="m 0,0 c 0,0 -15.662,41.353 16.06,27.04 0,0 25.524,-11.462 -9.544,-27.986 L 4.78,-3.043 Z" /></g><g
           transform="translate(93.5518,244.1079)"
           id="g84"><path
             id="path86"
             style="fill:#979900;fill-opacity:1;fill-rule:nonzero;stroke:none"
             d="M 0,0 C 0,0 -0.186,0.866 3.048,-0.626 6.282,-2.118 20.034,-3.6 20.034,-3.6 L 18.451,-5.813 3.326,-3.055 c 0,0 -4.763,-4.078 -3.326,3.055" /></g><g
           transform="translate(93.0581,255.6382)"
           id="g88"><path
             id="path90"
             style="fill:#c8b300;fill-opacity:1;fill-rule:nonzero;stroke:none"
             d="M 0,0 C 0.265,-1.235 2.027,-1.905 3.936,-1.496 5.845,-1.087 7.178,0.246 6.913,1.481 6.648,2.718 4.886,3.388 2.977,2.979 1.068,2.569 -0.265,1.236 0,0" /></g><g
           transform="translate(106.1685,248.689)"
           id="g92"><path
             id="path94"
             style="fill:#c8b300;fill-opacity:1;fill-rule:nonzero;stroke:none"
             d="M 0,0 C 0.207,-0.964 0.843,-1.727 1.667,-2.128 2.265,-2.42 6.715,-8.331 7.417,-8.181 7.706,-8.119 8.143,-8.188 7.98,-7.776 7.483,-6.52 4.959,-3.593 4.349,-1.493 4.005,-0.311 6.143,0.798 6.036,1.294 5.679,2.961 4.038,4.022 2.372,3.665 0.705,3.309 -0.357,1.667 0,0" /></g><g
           transform="translate(103.8169,233.0146)"
           id="g96"><path
             id="path98"
             style="fill:#c8b300;fill-opacity:1;fill-rule:nonzero;stroke:none"
             d="m 0,0 c 0.779,-1.589 2.7,-2.245 4.289,-1.466 1.589,0.78 2.246,2.7 1.466,4.29 -0.78,1.589 -2.7,2.245 -4.29,1.465 C -0.124,3.51 -0.78,1.59 0,0" /></g><g
           transform="translate(94.918,235.6055)"
           id="g100"><path
             id="path102"
             style="fill:#c8b300;fill-opacity:1;fill-rule:nonzero;stroke:none"
             d="M 0,0 C 0.304,-1.417 1.698,-2.319 3.115,-2.016 4.533,-1.712 5.435,-0.317 5.131,1.1 4.828,2.518 3.433,3.42 2.016,3.116 0.599,2.813 -0.304,1.417 0,0" /></g><g
           transform="translate(97.4351,232.0386)"
           id="g104"><path
             id="path106"
             style="fill:#c8b300;fill-opacity:1;fill-rule:nonzero;stroke:none"
             d="M 0,0 C 0.304,-1.417 1.699,-2.319 3.116,-2.016 4.533,-1.712 5.435,-0.317 5.131,1.1 4.828,2.517 3.433,3.42 2.016,3.116 0.599,2.813 -0.304,1.417 0,0" /></g><g
           transform="translate(99.0493,244.1909)"
           id="g108"><path
             id="path110"
             style="fill:#c8b300;fill-opacity:1;fill-rule:nonzero;stroke:none"
             d="M 0,0 C 0.304,-1.417 1.699,-2.319 3.116,-2.016 4.533,-1.712 5.436,-0.317 5.132,1.1 4.828,2.517 3.433,3.419 2.016,3.116 0.599,2.813 -0.304,1.417 0,0" /></g><g
           transform="translate(119.1919,240.7368)"
           id="g112"><path
             id="path114"
             style="fill:#ffea52;fill-opacity:1;fill-rule:nonzero;stroke:none"
             d="M 0,0 C 0,0 25.926,16.689 25.483,-8.051 25.039,-32.792 -0.598,-20.667 -4.648,-10.563 l -3.698,6.504 2.74,3.83 z" /></g><g
           transform="translate(101.2046,243.7773)"
           id="g116"><path
             id="path118"
             style="fill:#c8b300;fill-opacity:1;fill-rule:nonzero;stroke:none"
             d="M 0,0 6.168,-2.519 9.506,-2.914 1.062,1.055 Z" /></g><g
           transform="translate(94.7378,255.6143)"
           id="g120"><path
             id="path122"
             style="fill:#c8b300;fill-opacity:1;fill-rule:nonzero;stroke:none"
             d="m 0,0 8.398,-9.813 2.333,-1.096 -8.445,12.07 z" /></g><g
           transform="translate(99.3418,237.6255)"
           id="g124"><path
             id="path126"
             style="fill:#c8b300;fill-opacity:1;fill-rule:nonzero;stroke:none"
             d="M 0,0 9.843,0.902 12.554,0.408 11.853,-0.571 0.37,-1.725 Z" /></g><g
           transform="translate(95.543,237.4624)"
           id="g128"><path
             id="path130"
             style="fill:#c8b300;fill-opacity:1;fill-rule:nonzero;stroke:none"
             d="M 0,0 9.298,3.629 10.406,3.048 1.125,-1.434 Z" /></g><g
           transform="translate(110.146,310.9346)"
           id="g132"><path
             id="path134"
             style="fill:#ffea52;fill-opacity:1;fill-rule:nonzero;stroke:none"
             d="m 0,0 c 0,0 -6.249,-19.243 14.118,-8.694 l 3.728,2.622 -0.716,2.332 C 17.13,-3.74 4.532,14.553 0,0" /></g><g
           transform="translate(127.7661,326.2812)"
           id="g136"><path
             id="path138"
             style="fill:#ffea52;fill-opacity:1;fill-rule:nonzero;stroke:none"
             d="m 0,0 c 0,0 -18.319,-2.131 -0.49,-19.087 l 3.127,-0.517 c 0,0 14.292,17.951 -2.637,19.604" /></g><g
           transform="translate(130.5752,307.3589)"
           id="g140"><path
             id="path142"
             style="fill:#ffea52;fill-opacity:1;fill-rule:nonzero;stroke:none"
             d="m 0,0 c 0,0 21.544,10.373 15.319,-7.385 0,0 -4.98,-14.288 -15.524,3.83 l -1.211,0.838 z" /></g><g
           transform="translate(131.1562,315.2344)"
           id="g144"><path
             id="path146"
             style="fill:#979900;fill-opacity:1;fill-rule:nonzero;stroke:none"
             d="m 0,0 c 0,0 0.458,0.141 -0.195,-1.671 -0.652,-1.812 -0.807,-9.29 -0.807,-9.29 l -1.266,0.749 0.778,8.277 c 0,0 -2.42,2.375 1.49,1.935" /></g><g
           transform="translate(137.3452,316.0405)"
           id="g148"><path
             id="path150"
             style="fill:#c8b300;fill-opacity:1;fill-rule:nonzero;stroke:none"
             d="m 0,0 c -0.653,-0.2 -0.932,-1.181 -0.622,-2.19 0.31,-1.009 1.09,-1.664 1.744,-1.464 0.653,0.2 0.931,1.18 0.622,2.19 C 1.434,-0.455 0.653,0.201 0,0" /></g><g
           transform="translate(134.2153,308.6523)"
           id="g152"><path
             id="path154"
             style="fill:#c8b300;fill-opacity:1;fill-rule:nonzero;stroke:none"
             d="m 0,0 c -0.51,-0.156 -0.891,-0.535 -1.068,-0.997 -0.13,-0.337 -3.106,-3.011 -2.993,-3.382 0.047,-0.152 0.031,-0.392 0.245,-0.284 0.654,0.326 2.112,1.823 3.215,2.25 0.621,0.24 1.318,-0.858 1.58,-0.778 0.882,0.27 1.377,1.204 1.106,2.085 C 1.815,-0.225 0.881,0.271 0,0" /></g><g
           transform="translate(125.6611,309.1855)"
           id="g156"><path
             id="path158"
             style="fill:#c8b300;fill-opacity:1;fill-rule:nonzero;stroke:none"
             d="m 0,0 c -0.819,-0.494 -1.083,-1.56 -0.589,-2.38 0.495,-0.819 1.56,-1.083 2.38,-0.588 0.819,0.494 1.083,1.56 0.588,2.379 C 1.885,0.23 0.82,0.494 0,0" /></g><g
           transform="translate(126.6406,314.1011)"
           id="g160"><path
             id="path162"
             style="fill:#c8b300;fill-opacity:1;fill-rule:nonzero;stroke:none"
             d="m 0,0 c -0.75,-0.229 -1.17,-1.023 -0.94,-1.772 0.23,-0.749 1.023,-1.17 1.773,-0.941 0.749,0.23 1.169,1.024 0.939,1.773 C 1.543,-0.19 0.749,0.23 0,0" /></g><g
           transform="translate(124.8364,312.5771)"
           id="g164"><path
             id="path166"
             style="fill:#c8b300;fill-opacity:1;fill-rule:nonzero;stroke:none"
             d="m 0,0 c -0.749,-0.229 -1.17,-1.023 -0.94,-1.772 0.23,-0.749 1.023,-1.17 1.773,-0.941 0.749,0.231 1.17,1.025 0.94,1.774 C 1.543,-0.19 0.749,0.23 0,0" /></g><g
           transform="translate(131.4585,312.2764)"
           id="g168"><path
             id="path170"
             style="fill:#c8b300;fill-opacity:1;fill-rule:nonzero;stroke:none"
             d="m 0,0 c -0.749,-0.229 -1.17,-1.023 -0.94,-1.772 0.23,-0.749 1.023,-1.17 1.773,-0.941 0.749,0.231 1.17,1.025 0.94,1.774 C 1.543,-0.19 0.75,0.23 0,0" /></g><g
           transform="translate(130.5405,301.2637)"
           id="g172"><path
             id="path174"
             style="fill:#ffea52;fill-opacity:1;fill-rule:nonzero;stroke:none"
             d="M 0,0 C 0,0 10.205,-13.186 -3.144,-14.104 -16.493,-15.023 -11.161,-0.646 -5.908,2.01 L -2.577,4.307 -0.386,3.01 Z" /></g><g
           transform="translate(131.3369,311.0972)"
           id="g176"><path
             id="path178"
             style="fill:#c8b300;fill-opacity:1;fill-rule:nonzero;stroke:none"
             d="m 0,0 -1.068,-3.44 -0.057,-1.818 1.743,4.735 z" /></g><g
           transform="translate(137.4111,315.1343)"
           id="g180"><path
             id="path182"
             style="fill:#c8b300;fill-opacity:1;fill-rule:nonzero;stroke:none"
             d="m 0,0 -4.893,-4.983 -0.482,-1.308 6.107,5.114 z" /></g><g
           transform="translate(127.9355,311.812)"
           id="g184"><path
             id="path186"
             style="fill:#c8b300;fill-opacity:1;fill-rule:nonzero;stroke:none"
             d="M 0,0 0.947,-5.26 0.808,-6.743 0.247,-6.411 -0.912,-0.279 Z" /></g><g
           transform="translate(127.6694,313.8511)"
           id="g188"><path
             id="path190"
             style="fill:#c8b300;fill-opacity:1;fill-rule:nonzero;stroke:none"
             d="m 0,0 2.391,-4.839 -0.262,-0.624 -2.848,4.79 z" /></g><g
           transform="translate(239.9121,294.1191)"
           id="g192"><path
             id="path194"
             style="fill:#ffea52;fill-opacity:1;fill-rule:nonzero;stroke:none"
             d="m 0,0 c 0,0 -10.486,-13.926 9.063,-11.042 l 3.773,1.09 0.071,2.1 C 12.907,-7.852 7.771,10.585 0,0" /></g><g
           transform="translate(258.5703,301.6807)"
           id="g196"><path
             id="path198"
             style="fill:#ffea52;fill-opacity:1;fill-rule:nonzero;stroke:none"
             d="m 0,0 c 0,0 -15.521,3.4 -5.751,-15.413 l 2.401,-1.298 c 0,0 16.678,10.617 3.35,16.711" /></g><g
           transform="translate(255.5527,285.478)"
           id="g200"><path
             id="path202"
             style="fill:#ffea52;fill-opacity:1;fill-rule:nonzero;stroke:none"
             d="m 0,0 c 0,0 20.46,2.409 10.409,-10.313 0,0 -8.063,-10.243 -11.573,7.474 l -0.752,1.022 z" /></g><g
           transform="translate(258.2344,291.7305)"
           id="g204"><path
             id="path206"
             style="fill:#979900;fill-opacity:1;fill-rule:nonzero;stroke:none"
             d="m 0,0 c 0,0 0.413,-0.014 -0.627,-1.308 -1.04,-1.293 -3.262,-7.341 -3.262,-7.341 l -0.822,0.965 2.955,6.526 c 0,0 -1.306,2.613 1.756,1.158" /></g><g
           transform="translate(263.502,290.6514)"
           id="g208"><path
             id="path210"
             style="fill:#c8b300;fill-opacity:1;fill-rule:nonzero;stroke:none"
             d="m 0,0 c -0.588,0.02 -1.09,-0.701 -1.121,-1.61 -0.029,-0.909 0.422,-1.661 1.011,-1.682 0.589,-0.02 1.089,0.701 1.12,1.61 C 1.041,-0.772 0.588,-0.02 0,0" /></g><g
           transform="translate(258.8809,285.5098)"
           id="g212"><path
             id="path214"
             style="fill:#c8b300;fill-opacity:1;fill-rule:nonzero;stroke:none"
             d="m 0,0 c -0.459,0.016 -0.875,-0.186 -1.15,-0.513 -0.201,-0.237 -3.374,-1.581 -3.385,-1.916 -0.005,-0.136 -0.086,-0.327 0.119,-0.3 0.624,0.083 2.231,0.894 3.25,0.932 0.572,0.023 0.833,-1.069 1.068,-1.077 C 0.696,-2.9 1.361,-2.279 1.389,-1.485 1.416,-0.691 0.794,-0.026 0,0" /></g><g
           transform="translate(252.0615,288.3428)"
           id="g216"><path
             id="path218"
             style="fill:#c8b300;fill-opacity:1;fill-rule:nonzero;stroke:none"
             d="m 0,0 c -0.807,-0.173 -1.319,-0.967 -1.146,-1.772 0.172,-0.807 0.966,-1.321 1.772,-1.148 0.808,0.173 1.32,0.967 1.147,1.774 C 1.601,-0.34 0.807,0.173 0,0" /></g><g
           transform="translate(254.2373,292.0732)"
           id="g220"><path
             id="path222"
             style="fill:#c8b300;fill-opacity:1;fill-rule:nonzero;stroke:none"
             d="m 0,0 c -0.675,0.022 -1.239,-0.506 -1.263,-1.181 -0.023,-0.674 0.506,-1.24 1.18,-1.263 0.676,-0.023 1.241,0.506 1.265,1.18 C 1.204,-0.589 0.675,-0.023 0,0" /></g><g
           transform="translate(252.3408,291.3384)"
           id="g224"><path
             id="path226"
             style="fill:#c8b300;fill-opacity:1;fill-rule:nonzero;stroke:none"
             d="m 0,0 c -0.675,0.022 -1.241,-0.506 -1.263,-1.181 -0.023,-0.674 0.506,-1.24 1.18,-1.262 0.675,-0.024 1.241,0.506 1.264,1.18 C 1.203,-0.588 0.675,-0.022 0,0" /></g><g
           transform="translate(257.6514,289.2368)"
           id="g228"><path
             id="path230"
             style="fill:#c8b300;fill-opacity:1;fill-rule:nonzero;stroke:none"
             d="m 0,0 c -0.675,0.022 -1.24,-0.506 -1.263,-1.181 -0.023,-0.674 0.506,-1.24 1.18,-1.263 0.675,-0.023 1.241,0.506 1.265,1.18 C 1.203,-0.589 0.675,-0.023 0,0" /></g><g
           transform="translate(253.8154,280.522)"
           id="g232"><path
             id="path234"
             style="fill:#ffea52;fill-opacity:1;fill-rule:nonzero;stroke:none"
             d="M 0,0 C 0,0 4.616,-13.604 -6.517,-10.609 -17.649,-7.615 -9.273,2.604 -4.25,3.294 L -0.892,4.23 0.53,2.56 Z" /></g><g
           transform="translate(257.2217,288.3091)"
           id="g236"><path
             id="path238"
             style="fill:#c8b300;fill-opacity:1;fill-rule:nonzero;stroke:none"
             d="M 0,0 -1.835,-2.504 -2.392,-3.968 0.356,-0.6 Z" /></g><g
           transform="translate(263.3018,289.895)"
           id="g240"><path
             id="path242"
             style="fill:#c8b300;fill-opacity:1;fill-rule:nonzero;stroke:none"
             d="m 0,0 -5.384,-2.688 -0.759,-0.93 6.411,2.454 z" /></g><g
           transform="translate(254.6514,289.8452)"
           id="g244"><path
             id="path246"
             style="fill:#c8b300;fill-opacity:1;fill-rule:nonzero;stroke:none"
             d="m 0,0 -0.704,-4.551 -0.529,-1.169 -0.364,0.428 0.775,5.32 z" /></g><g
           transform="translate(255.0059,291.5811)"
           id="g248"><path
             id="path250"
             style="fill:#c8b300;fill-opacity:1;fill-rule:nonzero;stroke:none"
             d="M 0,0 0.59,-4.613 0.203,-5.048 -0.774,-0.347 Z" /></g><g
           transform="translate(256.0605,186.3428)"
           id="g252"><path
             id="path254"
             style="fill:#ffea52;fill-opacity:1;fill-rule:nonzero;stroke:none"
             d="m 0,0 c 0,0 -11.721,-15.564 10.131,-12.342 l 4.216,1.219 0.079,2.348 C 14.426,-8.775 8.688,11.83 0,0" /></g><g
           transform="translate(276.915,194.7939)"
           id="g256"><path
             id="path258"
             style="fill:#ffea52;fill-opacity:1;fill-rule:nonzero;stroke:none"
             d="m 0,0 c 0,0 -17.35,3.802 -6.429,-17.227 l 2.686,-1.451 c 0,0 18.639,11.866 3.743,18.678" /></g><g
           transform="translate(273.542,176.6841)"
           id="g260"><path
             id="path262"
             style="fill:#ffea52;fill-opacity:1;fill-rule:nonzero;stroke:none"
             d="m 0,0 c 0,0 22.868,2.693 11.634,-11.525 0,0 -9.011,-11.45 -12.934,8.352 l -0.842,1.143 z" /></g><g
           transform="translate(276.54,183.6729)"
           id="g264"><path
             id="path266"
             style="fill:#979900;fill-opacity:1;fill-rule:nonzero;stroke:none"
             d="m 0,0 c 0,0 0.461,-0.016 -0.701,-1.461 -1.162,-1.445 -3.647,-8.206 -3.647,-8.206 l -0.919,1.079 3.304,7.293 c 0,0 -1.459,2.921 1.963,1.295" /></g><g
           transform="translate(282.4268,182.4673)"
           id="g268"><path
             id="path270"
             style="fill:#c8b300;fill-opacity:1;fill-rule:nonzero;stroke:none"
             d="m 0,0 c -0.658,0.022 -1.218,-0.783 -1.252,-1.799 -0.035,-1.016 0.47,-1.858 1.128,-1.88 0.658,-0.022 1.219,0.783 1.253,1.799 C 1.163,-0.863 0.658,-0.021 0,0" /></g><g
           transform="translate(277.2617,176.7212)"
           id="g272"><path
             id="path274"
             style="fill:#c8b300;fill-opacity:1;fill-rule:nonzero;stroke:none"
             d="m 0,0 c -0.514,0.018 -0.979,-0.208 -1.286,-0.573 -0.223,-0.266 -3.771,-1.768 -3.782,-2.142 -0.007,-0.153 -0.097,-0.365 0.132,-0.335 0.698,0.092 2.496,0.998 3.633,1.041 0.64,0.025 0.93,-1.195 1.196,-1.204 0.886,-0.03 1.629,0.665 1.66,1.553 C 1.582,-0.773 0.888,-0.03 0,0" /></g><g
           transform="translate(269.6406,179.8872)"
           id="g276"><path
             id="path278"
             style="fill:#c8b300;fill-opacity:1;fill-rule:nonzero;stroke:none"
             d="M 0,0 C -0.901,-0.193 -1.477,-1.08 -1.282,-1.981 -1.089,-2.883 -0.201,-3.457 0.7,-3.264 1.601,-3.07 2.175,-2.183 1.981,-1.281 1.789,-0.38 0.9,0.193 0,0" /></g><g
           transform="translate(272.0723,184.0557)"
           id="g280"><path
             id="path282"
             style="fill:#c8b300;fill-opacity:1;fill-rule:nonzero;stroke:none"
             d="m 0,0 c -0.754,0.025 -1.386,-0.565 -1.412,-1.319 -0.025,-0.755 0.566,-1.387 1.32,-1.412 0.755,-0.026 1.386,0.565 1.412,1.32 C 1.345,-0.657 0.754,-0.025 0,0" /></g><g
           transform="translate(269.9521,183.2344)"
           id="g284"><path
             id="path286"
             style="fill:#c8b300;fill-opacity:1;fill-rule:nonzero;stroke:none"
             d="m 0,0 c -0.754,0.025 -1.386,-0.565 -1.412,-1.319 -0.025,-0.755 0.566,-1.387 1.32,-1.412 0.754,-0.026 1.386,0.565 1.411,1.319 C 1.345,-0.657 0.754,-0.025 0,0" /></g><g
           transform="translate(275.8877,180.8848)"
           id="g288"><path
             id="path290"
             style="fill:#c8b300;fill-opacity:1;fill-rule:nonzero;stroke:none"
             d="m 0,0 c -0.754,0.025 -1.386,-0.565 -1.412,-1.319 -0.025,-0.754 0.566,-1.387 1.32,-1.412 0.754,-0.026 1.386,0.565 1.411,1.32 C 1.346,-0.657 0.754,-0.025 0,0" /></g><g
           transform="translate(271.6006,171.145)"
           id="g292"><path
             id="path294"
             style="fill:#ffea52;fill-opacity:1;fill-rule:nonzero;stroke:none"
             d="M 0,0 C 0,0 5.16,-15.205 -7.283,-11.857 -19.728,-8.511 -10.365,2.91 -4.75,3.682 l 3.753,1.047 1.589,-1.868 z" /></g><g
           transform="translate(275.4072,179.8491)"
           id="g296"><path
             id="path298"
             style="fill:#c8b300;fill-opacity:1;fill-rule:nonzero;stroke:none"
             d="M 0,0 -2.05,-2.799 -2.671,-4.435 0.398,-0.67 Z" /></g><g
           transform="translate(282.2031,181.6216)"
           id="g300"><path
             id="path302"
             style="fill:#c8b300;fill-opacity:1;fill-rule:nonzero;stroke:none"
             d="m 0,0 -6.018,-3.004 -0.848,-1.041 7.164,2.744 z" /></g><g
           transform="translate(272.5342,181.5659)"
           id="g304"><path
             id="path306"
             style="fill:#c8b300;fill-opacity:1;fill-rule:nonzero;stroke:none"
             d="m 0,0 -0.786,-5.086 -0.592,-1.308 -0.407,0.479 0.867,5.946 z" /></g><g
           transform="translate(272.9307,183.5059)"
           id="g308"><path
             id="path310"
             style="fill:#c8b300;fill-opacity:1;fill-rule:nonzero;stroke:none"
             d="M 0,0 0.66,-5.156 0.228,-5.643 -0.866,-0.388 Z" /></g><g
           transform="translate(180.1758,210.3682)"
           id="g312"><path
             id="path314"
             style="fill:#ffea52;fill-opacity:1;fill-rule:nonzero;stroke:none"
             d="m 0,0 c 0,0 -20.489,-28.357 18.625,-21.797 l 7.525,2.337 0.06,4.218 c 0,0 -11.034,36.79 -26.21,15.242" /></g><g
           transform="translate(217.3145,226.2812)"
           id="g316"><path
             id="path318"
             style="fill:#ffea52;fill-opacity:1;fill-rule:nonzero;stroke:none"
             d="m 0,0 c 0,0 -31.279,6.209 -10.929,-31.155 l 4.872,-2.51 c 0,0 33.042,21.965 6.057,33.665" /></g><g
           transform="translate(213.375,190.8105)"
           id="g320"><path
             id="path322"
             style="fill:#ffea52;fill-opacity:1;fill-rule:nonzero;stroke:none"
             d="m 0,0 c 0,0 40.959,5.646 21.295,-20.28 0,0 -15.773,-20.872 -23.518,14.538 l -1.548,2.019 z" /></g><g
           transform="translate(217.0361,206.3018)"
           id="g324"><path
             id="path326"
             style="fill:#979900;fill-opacity:1;fill-rule:nonzero;stroke:none"
             d="m 0,0 c 0,0 0.828,-0.012 -1.207,-2.647 -2.035,-2.636 -6.255,-14.862 -6.255,-14.862 l -1.686,1.905 5.669,13.21 c 0,0 -2.722,5.193 3.479,2.394" /></g><g
           transform="translate(227.6484,204.3462)"
           id="g328"><path
             id="path330"
             style="fill:#c8b300;fill-opacity:1;fill-rule:nonzero;stroke:none"
             d="m 0,0 c -1.182,0.017 -2.16,-1.449 -2.186,-3.274 -0.025,-1.826 0.914,-3.319 2.094,-3.335 1.181,-0.017 2.16,1.45 2.185,3.275 C 2.119,-1.509 1.183,-0.016 0,0" /></g><g
           transform="translate(218.5791,193.8472)"
           id="g332"><path
             id="path334"
             style="fill:#c8b300;fill-opacity:1;fill-rule:nonzero;stroke:none"
             d="m 0,0 c -0.922,0.013 -1.75,-0.409 -2.288,-1.075 -0.391,-0.485 -6.708,-3.308 -6.717,-3.979 -0.004,-0.276 -0.158,-0.66 0.252,-0.597 1.249,0.19 4.443,1.88 6.485,1.999 1.149,0.066 1.713,-2.114 2.187,-2.12 1.596,-0.022 2.905,1.251 2.928,2.845 C 2.868,-1.333 1.595,-0.022 0,0" /></g><g
           transform="translate(204.5947,237.2139)"
           id="g336"><path
             id="path338"
             style="fill:#c8b300;fill-opacity:1;fill-rule:nonzero;stroke:none"
             d="m 0,0 c -0.922,0.013 -1.75,-0.409 -2.288,-1.075 -0.391,-0.485 -6.708,-3.308 -6.717,-3.979 -0.004,-0.276 -0.158,-0.66 0.251,-0.597 1.25,0.19 4.444,1.88 6.485,1.999 1.15,0.066 1.714,-2.114 2.188,-2.12 1.595,-0.022 2.904,1.251 2.928,2.845 C 2.868,-1.332 1.595,-0.022 0,0" /></g><g
           transform="translate(204.7842,199.2607)"
           id="g340"><path
             id="path342"
             style="fill:#c8b300;fill-opacity:1;fill-rule:nonzero;stroke:none"
             d="m 0,0 c -1.611,-0.379 -2.61,-1.993 -2.231,-3.604 0.378,-1.611 1.992,-2.61 3.604,-2.231 1.61,0.379 2.608,1.992 2.231,3.604 C 3.225,-0.62 1.61,0.379 0,0" /></g><g
           transform="translate(209.002,206.8311)"
           id="g344"><path
             id="path346"
             style="fill:#c8b300;fill-opacity:1;fill-rule:nonzero;stroke:none"
             d="m 0,0 c -1.354,0.019 -2.469,-1.064 -2.487,-2.419 -0.019,-1.355 1.064,-2.469 2.42,-2.488 1.354,-0.019 2.467,1.064 2.486,2.42 C 2.438,-1.133 1.355,-0.02 0,0" /></g><g
           transform="translate(205.2256,205.2812)"
           id="g348"><path
             id="path350"
             style="fill:#c8b300;fill-opacity:1;fill-rule:nonzero;stroke:none"
             d="m 0,0 c -1.355,0.019 -2.469,-1.064 -2.488,-2.42 -0.018,-1.354 1.065,-2.468 2.42,-2.487 1.355,-0.019 2.467,1.064 2.487,2.419 C 2.438,-1.133 1.354,-0.02 0,0" /></g><g
           transform="translate(215.9648,201.2739)"
           id="g352"><path
             id="path354"
             style="fill:#c8b300;fill-opacity:1;fill-rule:nonzero;stroke:none"
             d="m 0,0 c -1.355,0.02 -2.47,-1.063 -2.487,-2.419 -0.019,-1.354 1.064,-2.469 2.419,-2.487 1.355,-0.019 2.467,1.064 2.487,2.419 C 2.438,-1.132 1.354,-0.019 0,0" /></g><g
           transform="translate(208.6133,183.6362)"
           id="g356"><path
             id="path358"
             style="fill:#ffea52;fill-opacity:1;fill-rule:nonzero;stroke:none"
             d="m 0,0 c 0,0 9.803,-27.114 -12.655,-21.547 -22.458,5.567 -6.057,26.403 3.997,27.987 l 6.7,2.013 2.919,-3.296 z" /></g><g
           transform="translate(215.1387,199.396)"
           id="g360"><path
             id="path362"
             style="fill:#c8b300;fill-opacity:1;fill-rule:nonzero;stroke:none"
             d="m 0,0 -3.582,-5.097 -1.058,-2.96 5.38,6.869 z" /></g><g
           transform="translate(227.2773,202.8208)"
           id="g364"><path
             id="path366"
             style="fill:#c8b300;fill-opacity:1;fill-rule:nonzero;stroke:none"
             d="m 0,0 -10.697,-5.607 -1.487,-1.899 12.766,5.18 z" /></g><g
           transform="translate(209.5166,241.73)"
           id="g368"><path
             id="path370"
             style="fill:#c8b300;fill-opacity:1;fill-rule:nonzero;stroke:none"
             d="m 0,0 c -1.182,0.017 -2.16,-1.449 -2.186,-3.275 -0.025,-1.826 0.914,-3.319 2.094,-3.334 1.181,-0.017 2.16,1.449 2.186,3.274 C 2.119,-1.509 1.183,-0.017 0,0" /></g><g
           transform="translate(209.1455,240.2036)"
           id="g372"><path
             id="path374"
             style="fill:#c8b300;fill-opacity:1;fill-rule:nonzero;stroke:none"
             d="m 0,0 -10.697,-5.607 -1.487,-1.898 12.766,5.18 z" /></g><g
           transform="translate(209.9199,202.377)"
           id="g376"><path
             id="path378"
             style="fill:#c8b300;fill-opacity:1;fill-rule:nonzero;stroke:none"
             d="m 0,0 -1.231,-9.16 -1.017,-2.367 -0.747,0.843 1.346,10.707 z" /></g><g
           transform="translate(210.5635,205.8745)"
           id="g380"><path
             id="path382"
             style="fill:#c8b300;fill-opacity:1;fill-rule:nonzero;stroke:none"
             d="m 0,0 1.368,-9.232 -0.762,-0.889 -2.147,9.394 z" /></g><g
           transform="translate(261.4951,221.6626)"
           id="g384"><path
             id="path386"
             style="fill:#ffe950;fill-opacity:1;fill-rule:nonzero;stroke:none"
             d="m 0,0 c 0.896,4.029 4.161,7.053 4.402,11.48 0.238,4.321 -0.148,8.352 -2.162,12.172 -1.181,2.243 -1.753,4.69 -1.83,7.132 -0.124,3.865 5.07,9.786 9.153,10.867 3.78,1.001 9.465,-1.974 11.803,-5.887 3.906,-6.544 3.701,-12.897 0.16,-19.589 C 17.29,8.168 11.723,1.744 3.146,-1.689 1.629,-2 -0.307,-3.091 0,0" /></g><g
           transform="translate(165.5962,333.6816)"
           id="g388"><path
             id="path390"
             style="fill:#ffe954;fill-opacity:1;fill-rule:nonzero;stroke:none"
             d="m 0,0 c 1.355,1.331 20.294,0.94 27.891,-1.389 7.407,-2.271 14.823,-4.707 18.025,-12.806 2.329,-5.897 -0.417,-14.241 -8.196,-15.946 -3.56,-0.78 -5.887,0.574 -7.639,3.668 -2.492,4.403 -4.041,9.288 -7.141,13.383 C 17.939,-6.482 0.699,-1.391 0,0" /></g><g
           transform="translate(180.3896,307.2407)"
           id="g392"><path
             id="path394"
             style="fill:#ffe954;fill-opacity:1;fill-rule:nonzero;stroke:none"
             d="m 0,0 c 0.213,0.574 0.019,3.224 -1.628,5.242 -1.605,1.97 -3.261,3.921 -6.02,3.902 -2.009,-0.015 -4.079,-1.868 -3.579,-4.436 0.228,-1.175 0.918,-1.716 2.04,-1.868 C -7.591,2.622 -5.975,2.749 -4.391,2.311 -1.835,1.602 -0.493,0.042 0,0" /></g><g
           transform="translate(244.5273,241.2178)"
           id="g396"><path
             id="path398"
             style="fill:#ffe954;fill-opacity:1;fill-rule:nonzero;stroke:none"
             d="m 0,0 c 0.381,-0.479 2.751,-1.679 5.33,-1.311 2.516,0.359 5.041,0.769 6.448,3.142 1.025,1.728 0.507,4.457 -1.95,5.355 C 8.703,7.597 7.884,7.284 7.174,6.402 6.164,5.148 5.438,3.698 4.245,2.568 2.317,0.745 0.29,0.4 0,0" /></g><g
           transform="translate(247.7686,230.6802)"
           id="g400"><path
             id="path402"
             style="fill:#ffe954;fill-opacity:1;fill-rule:nonzero;stroke:none"
             d="m 0,0 c -0.136,-0.363 -0.012,-2.039 1.029,-3.315 1.016,-1.246 2.062,-2.48 3.807,-2.467 1.269,0.009 2.579,1.18 2.264,2.804 C 6.955,-2.234 6.519,-1.893 5.809,-1.796 4.8,-1.658 3.777,-1.739 2.776,-1.461 1.16,-1.013 0.312,-0.027 0,0" /></g><g
           transform="translate(312.9297,212.064)"
           id="g404"><path
             id="path406"
             style="fill:none;stroke:#007147;stroke-width:3;stroke-linecap:butt;stroke-linejoin:miter;stroke-miterlimit:10;stroke-dasharray:none;stroke-opacity:1"
             d="m 0,0 c 0,-74.179 -60.134,-134.312 -134.312,-134.312 -74.179,0 -134.313,60.133 -134.313,134.312 0,74.179 60.134,134.312 134.313,134.312 C -60.134,134.312 0,74.179 0,0 Z" /></g><g
           transform="translate(62.4189,198.8066)"
           id="g408"><path
             id="path410"
             style="fill:#00a782;fill-opacity:1;fill-rule:nonzero;stroke:none"
             d="m 0,0 c 1.308,-4.199 2.989,-8.248 5.189,-11.938 1.107,-1.837 2.349,-3.585 3.818,-5.092 0.701,-0.788 1.508,-1.453 2.302,-2.122 l 1.273,-0.891 c 0.426,-0.298 0.925,-0.596 1.384,-0.894 1.867,-1.204 3.66,-2.515 5.419,-3.865 1.719,-1.401 3.439,-2.8 5.031,-4.342 3.218,-3.033 6.22,-6.314 8.708,-9.961 -3.121,3.106 -6.378,6.019 -9.739,8.79 -3.37,2.756 -6.851,5.365 -10.504,7.699 -0.457,0.306 -0.898,0.577 -1.367,0.912 l -1.41,1.017 c -0.867,0.754 -1.764,1.493 -2.487,2.379 -1.512,1.713 -2.792,3.601 -3.786,5.614 C 1.797,-8.697 0.502,-4.382 0,0" /></g><g
           transform="translate(161.5454,127.1221)"
           id="g412"><path
             id="path414"
             style="fill:#00a782;fill-opacity:1;fill-rule:nonzero;stroke:none"
             d="M 0,0 C 7.223,2.679 14.814,4.441 22.539,5.187 26.399,5.602 30.308,5.626 34.203,5.34 36.157,5.239 38.087,4.882 40.025,4.57 41.927,4.134 43.889,3.629 45.679,3.181 47.486,2.647 49.364,2.362 51.22,1.998 53.103,1.761 54.977,1.459 56.877,1.332 60.665,0.94 64.489,0.89 68.311,0.87 72.135,0.872 75.965,1.036 79.792,1.288 83.625,1.504 87.449,1.885 91.273,2.331 83.754,0.656 76.076,-0.373 68.347,-0.689 64.482,-0.857 60.602,-0.843 56.725,-0.556 54.784,-0.469 52.855,-0.157 50.92,0.066 49,0.427 47.067,0.703 45.174,1.245 43.241,1.751 41.478,2.214 39.639,2.656 L 36.851,3.129 C 35.925,3.315 34.974,3.334 34.037,3.458 30.274,3.842 26.46,3.861 22.657,3.636 18.854,3.407 15.048,2.984 11.27,2.363 7.481,1.778 3.728,0.961 0,0" /></g></g></g><g
       id="g416"><g
         clip-path="url(#clipPath422)"
         id="g418"><text
           id="text426"
           style="font-variant:normal;font-weight:bold;font-stretch:normal;font-size:72px;font-family:Arial;-inkscape-font-specification:Arial-BoldMT;writing-mode:lr-tb;fill:#007d00;fill-opacity:1;fill-rule:nonzero;stroke:none"
           transform="matrix(1,0,0,-1,75.561,12.6074)"><tspan
             id="tspan424"
             y="0"
             x="0 51.984001 88.991997 132.98399 153">BnTIR</tspan></text>
</g></g></g></svg>